# xmcd CD database file
#
# Track frame offsets:
#	150
#	14932
#	29769
#	43410
#	63397
#	76801
#	88879
#	103821
#	118171
#	131931
#	144717
#	158690
#	172868
#	187907
#
# Disc length: 2635 seconds
#
# Revision: 0
# Processed by: cddbd v1.5.2PL0 Copyright (c) Steve Scherf et al.
# Submitted via: CDex 1.70beta2
#
DISCID=cd0a490e
DTITLE=Artie Shaw and His Orchestra - Little Jazz
DYEAR=2007
DGENRE=Jazz
TTITLE0=Begin The Beguine
TTITLE1=Someone's Rocking My Dreamboat
TTITLE2=Little Jazz
TTITLE3=Summertime
TTITLE4=St. James Infirmary
TTITLE5=They Can't Take It Away From Me
TTITLE6=I Can't Get Started With You
TTITLE7=A Foggy Day
TTITLE8=Tea For Two
TTITLE9=Love Walked In
TTITLE10=S' Wonderful
TTITLE11=Rockin' Chair
TTITLE12=Confession
TTITLE13=Deuces Wild
EXTD=YEAR: 2007
EXTT0=
EXTT1=
EXTT2=
EXTT3=
EXTT4=
EXTT5=
EXTT6=
EXTT7=
EXTT8=
EXTT9=
EXTT10=
EXTT11=
EXTT12=
EXTT13=
PLAYORDER=
